<svg width="947" height="450" viewBox="0 0 947 450" fill="none" xmlns="http://www.w3.org/2000/svg">
<path d="M549.2 116.1C558 116.1 564.6 119.75 569 127.05C573.5 134.25 575.75 144.6 575.75 158.1C575.75 166.5 574.6 173.9 572.3 180.3C570 186.6 566.7 191.55 562.4 195.15C558.1 198.65 553.05 200.4 547.25 200.4C540.05 200.4 534.2 197.6 529.7 192V228.6L508.85 230.85V118.5H527.3L528.35 127.65C533.75 119.95 540.7 116.1 549.2 116.1ZM541.25 184.8C549.85 184.8 554.15 175.95 554.15 158.25C554.15 148.45 553.15 141.6 551.15 137.7C549.25 133.7 546.4 131.7 542.6 131.7C537.6 131.7 533.3 134.95 529.7 141.45V177.45C532.9 182.35 536.75 184.8 541.25 184.8ZM627.977 198.15C625.077 208.15 620.427 215.9 614.027 221.4C607.627 226.9 598.977 230.1 588.077 231L585.827 216.15C592.727 215.05 597.827 213.15 601.127 210.45C604.527 207.85 607.227 203.7 609.227 198H601.727L579.827 118.5H601.427L615.077 184.35L629.927 118.5H650.927L627.977 198.15ZM703.836 194.25C701.236 196.25 698.236 197.75 694.836 198.75C691.436 199.85 688.036 200.4 684.636 200.4C676.936 200.4 671.086 198.2 667.086 193.8C663.186 189.4 661.236 183.25 661.236 175.35V133.35H651.036V118.5H661.236V101.1L682.086 98.55V118.5H698.586L696.486 133.35H682.086V175.2C682.086 180.9 684.336 183.75 688.836 183.75C691.236 183.75 693.886 182.95 696.786 181.35L703.836 194.25ZM752.838 116.1C759.038 116.1 763.938 118.2 767.538 122.4C771.138 126.6 772.938 132.25 772.938 139.35V198H752.088V142.2C752.088 138.5 751.488 135.85 750.288 134.25C749.188 132.65 747.488 131.85 745.188 131.85C740.788 131.85 736.488 135.5 732.288 142.8V198H711.438V86.85L732.288 84.75V127.65C735.188 123.75 738.288 120.85 741.588 118.95C744.888 117.05 748.638 116.1 752.838 116.1ZM821.3 116.1C832.2 116.1 840.7 119.75 846.8 127.05C853 134.25 856.1 144.65 856.1 158.25C856.1 171.35 853 181.65 846.8 189.15C840.6 196.65 832.05 200.4 821.15 200.4C810.25 200.4 801.7 196.75 795.5 189.45C789.4 182.15 786.35 171.75 786.35 158.25C786.35 144.95 789.4 134.6 795.5 127.2C801.7 119.8 810.3 116.1 821.3 116.1ZM821.3 131.7C816.8 131.7 813.45 133.8 811.25 138C809.05 142.2 807.95 148.95 807.95 158.25C807.95 167.75 809 174.55 811.1 178.65C813.3 182.75 816.65 184.8 821.15 184.8C825.65 184.8 829 182.7 831.2 178.5C833.4 174.3 834.5 167.55 834.5 158.25C834.5 148.85 833.4 142.1 831.2 138C829.1 133.8 825.8 131.7 821.3 131.7ZM911.48 116.1C917.78 116.1 922.68 118.2 926.18 122.4C929.78 126.5 931.58 132.15 931.58 139.35V198H910.73V142.2C910.73 138.5 910.13 135.85 908.93 134.25C907.83 132.65 906.18 131.85 903.98 131.85C899.48 131.85 895.13 135.5 890.93 142.8V198H870.08V118.5H888.23L889.73 128.55C892.73 124.45 895.93 121.35 899.33 119.25C902.83 117.15 906.88 116.1 911.48 116.1Z" fill="#434343"/>
<path d="M482.92 289.72C486.68 289.72 490.08 290.32 493.12 291.52C496.16 292.72 499.04 294.56 501.76 297.04L495.16 305.8C491.56 302.92 487.8 301.48 483.88 301.48C479.8 301.48 476.68 303.24 474.52 306.76C472.44 310.2 471.4 315.8 471.4 323.56C471.4 331.24 472.44 336.68 474.52 339.88C476.68 343.08 479.8 344.68 483.88 344.68C485.88 344.68 487.72 344.36 489.4 343.72C491.08 343 492.96 341.92 495.04 340.48L501.76 349.48C496.24 354.36 490.04 356.8 483.16 356.8C474.52 356.8 467.76 353.96 462.88 348.28C458 342.52 455.56 334.36 455.56 323.8C455.56 316.92 456.68 310.92 458.92 305.8C461.16 300.6 464.32 296.64 468.4 293.92C472.56 291.12 477.4 289.72 482.92 289.72ZM553.102 339.04C553.102 341.28 553.422 342.96 554.062 344.08C554.702 345.12 555.742 345.96 557.182 346.6L554.062 356.56C550.622 356.16 547.822 355.28 545.662 353.92C543.582 352.56 542.022 350.44 540.982 347.56C537.062 353.72 531.382 356.8 523.942 356.8C518.262 356.8 513.742 355 510.382 351.4C507.022 347.8 505.342 343.08 505.342 337.24C505.342 330.36 507.622 325.12 512.182 321.52C516.742 317.84 523.342 316 531.982 316H538.342V312.04C538.342 308.04 537.542 305.2 535.942 303.52C534.342 301.84 531.742 301 528.142 301C523.982 301 518.862 302.08 512.782 304.24L509.302 294.28C516.582 291.24 523.662 289.72 530.542 289.72C545.582 289.72 553.102 296.88 553.102 311.2V339.04ZM528.022 345.88C532.422 345.88 535.862 343.28 538.342 338.08V324.88H533.542C524.742 324.88 520.342 328.64 520.342 336.16C520.342 339.36 521.022 341.8 522.382 343.48C523.742 345.08 525.622 345.88 528.022 345.88ZM630.516 289.72C635.076 289.72 638.756 291.44 641.556 294.88C644.356 298.24 645.756 302.76 645.756 308.44V355H630.876V310.36C630.876 304.2 628.996 301.12 625.236 301.12C623.236 301.12 621.396 301.92 619.716 303.52C618.036 305.04 616.396 307.32 614.796 310.36V355H600.036V310.36C600.036 304.2 598.156 301.12 594.396 301.12C592.316 301.12 590.436 301.92 588.756 303.52C587.076 305.12 585.476 307.4 583.956 310.36V355H569.076V291.52H582.156L583.236 299.68C587.636 293.04 593.116 289.72 599.676 289.72C602.956 289.72 605.796 290.68 608.196 292.6C610.596 294.44 612.356 297.04 613.476 300.4C615.716 296.96 618.196 294.32 620.916 292.48C623.716 290.64 626.916 289.72 630.516 289.72ZM709.308 321.76C709.308 322.48 709.188 324.52 708.948 327.88H673.068C673.548 334.28 674.908 338.8 677.148 341.44C679.388 344.08 682.508 345.4 686.508 345.4C689.068 345.4 691.468 344.96 693.708 344.08C695.948 343.2 698.348 341.84 700.908 340L707.148 348.52C700.828 354.04 693.588 356.8 685.428 356.8C676.548 356.8 669.708 353.88 664.908 348.04C660.108 342.2 657.708 334.08 657.708 323.68C657.708 313.44 659.988 305.24 664.548 299.08C669.188 292.84 675.628 289.72 683.868 289.72C691.868 289.72 698.108 292.48 702.588 298C707.068 303.52 709.308 311.44 709.308 321.76ZM694.548 317.44C694.548 311.68 693.708 307.4 692.028 304.6C690.348 301.72 687.668 300.28 683.988 300.28C680.628 300.28 678.028 301.68 676.188 304.48C674.428 307.2 673.388 311.76 673.068 318.16H694.548V317.44ZM750.586 289.84C752.266 289.84 754.146 290.12 756.226 290.68L753.706 305.2C752.026 304.72 750.346 304.48 748.666 304.48C745.306 304.48 742.626 305.8 740.626 308.44C738.706 311.08 737.226 315.08 736.186 320.44V355H721.186V291.52H734.266L735.466 303.28C736.986 298.88 739.026 295.56 741.586 293.32C744.146 291 747.146 289.84 750.586 289.84ZM784.912 289.72C793.472 289.72 800.152 292.6 804.952 298.36C809.752 304.12 812.152 312.4 812.152 323.2C812.152 333.6 809.712 341.8 804.832 347.8C800.032 353.8 793.392 356.8 784.912 356.8C776.352 356.8 769.632 353.88 764.752 348.04C759.952 342.12 757.552 333.84 757.552 323.2C757.552 312.72 759.952 304.52 764.752 298.6C769.632 292.68 776.352 289.72 784.912 289.72ZM784.912 301.12C780.992 301.12 778.072 302.88 776.152 306.4C774.232 309.84 773.272 315.44 773.272 323.2C773.272 331.04 774.232 336.72 776.152 340.24C778.072 343.68 780.992 345.4 784.912 345.4C788.832 345.4 791.752 343.64 793.672 340.12C795.592 336.6 796.552 330.96 796.552 323.2C796.552 315.36 795.592 309.72 793.672 306.28C791.752 302.84 788.832 301.12 784.912 301.12ZM848.779 289.72C857.339 289.72 864.019 292.6 868.819 298.36C873.619 304.12 876.019 312.4 876.019 323.2C876.019 333.6 873.579 341.8 868.699 347.8C863.899 353.8 857.259 356.8 848.779 356.8C840.219 356.8 833.499 353.88 828.619 348.04C823.819 342.12 821.419 333.84 821.419 323.2C821.419 312.72 823.819 304.52 828.619 298.6C833.499 292.68 840.219 289.72 848.779 289.72ZM848.779 301.12C844.859 301.12 841.939 302.88 840.019 306.4C838.099 309.84 837.139 315.44 837.139 323.2C837.139 331.04 838.099 336.72 840.019 340.24C841.939 343.68 844.859 345.4 848.779 345.4C852.699 345.4 855.619 343.64 857.539 340.12C859.459 336.6 860.419 330.96 860.419 323.2C860.419 315.36 859.459 309.72 857.539 306.28C855.619 302.84 852.699 301.12 848.779 301.12ZM920.207 289.72C925.247 289.72 929.207 291.4 932.087 294.76C934.967 298.12 936.407 302.68 936.407 308.44V355H921.407V310.48C921.407 307.12 920.847 304.76 919.727 303.4C918.687 301.96 917.127 301.24 915.047 301.24C912.887 301.24 910.887 302.04 909.047 303.64C907.207 305.24 905.407 307.6 903.647 310.72V355H888.647V291.52H901.727L902.807 299.8C905.127 296.52 907.687 294.04 910.487 292.36C913.367 290.6 916.607 289.72 920.207 289.72Z" fill="#434343"/>
<g clip-path="url(#clip0_18_30)">
<ellipse cx="30.1019" cy="30.0926" rx="30.1019" ry="30.0926" transform="matrix(1 0 0 -1 244.52 400)" fill="white"/>
<ellipse cx="30.1019" cy="30.0926" rx="30.1019" ry="30.0926" transform="matrix(1 0 0 -1 151.899 118.519)" fill="white"/>
<path d="M94.4738 258.638L185.078 202.478L281.229 137.963H349.182L335.777 230.79L225.07 315.741L162.087 320.37L123.186 319.444L94.4738 258.638Z" fill="#CE1126"/>
<path d="M228.37 44.4443C134.313 44.4443 140.182 85.2198 140.182 85.2198L140.298 127.465H230.048V140.139H104.627C104.627 140.139 44.4583 133.31 44.4583 228.194C44.4583 323.055 96.9861 319.699 96.9861 319.699H128.338V275.671C128.338 275.671 126.648 223.16 180.033 223.16H269.042C269.042 223.16 319.057 223.97 319.057 174.838V93.5994C319.057 93.5994 326.652 44.4443 228.37 44.4443ZM178.875 72.8471C187.801 72.8471 195.026 80.0693 195.026 88.993C195.026 97.9166 187.801 105.139 178.875 105.139C176.753 105.142 174.652 104.726 172.691 103.916C170.73 103.106 168.948 101.916 167.448 100.417C165.947 98.9167 164.758 97.1356 163.947 95.1753C163.137 93.215 162.721 91.1141 162.724 88.993C162.724 80.0693 169.949 72.8471 178.875 72.8471Z" fill="url(#paint0_linear_18_30)"/>
<path d="M231.032 413.221C325.089 413.221 319.219 372.445 319.219 372.445L319.104 330.2H229.353V317.526H354.763C354.763 317.526 414.944 324.355 414.944 229.482C414.944 134.61 362.416 137.978 362.416 137.978L331.063 137.963V181.994C331.063 181.994 332.754 234.506 279.369 234.506H190.36C190.36 234.506 140.344 233.695 140.344 282.827V364.066C140.344 364.066 132.749 413.221 231.032 413.221ZM280.527 384.818C278.405 384.821 276.303 384.406 274.343 383.595C272.382 382.785 270.6 381.596 269.1 380.096C267.599 378.596 266.41 376.815 265.599 374.855C264.789 372.894 264.373 370.793 264.376 368.672C264.376 359.76 271.6 352.538 280.527 352.538C289.453 352.538 296.678 359.749 296.678 368.672C296.678 377.607 289.453 384.818 280.527 384.818Z" fill="url(#paint1_linear_18_30)"/>
</g>
<defs>
<linearGradient id="paint0_linear_18_30" x1="80.0596" y1="76.6434" x2="263.196" y2="260.45" gradientUnits="userSpaceOnUse">
<stop stop-color="#007A5E"/>
<stop offset="1" stop-color="#069574"/>
</linearGradient>
<linearGradient id="paint1_linear_18_30" x1="192.756" y1="193.881" x2="389.449" y2="382.379" gradientUnits="userSpaceOnUse">
<stop stop-color="#FFE052"/>
<stop offset="1" stop-color="#FCD116"/>
</linearGradient>
<clipPath id="clip0_18_30">
<rect width="477" height="450" fill="white"/>
</clipPath>
</defs>
</svg>
